<?xml version="1.0" encoding="utf-8"?>
<!-- Generator: Adobe Illustrator 24.3.0, SVG Export Plug-In . SVG Version: 6.00 Build 0)  -->
<svg version="1.1" id="Layer_1" xmlns="http://www.w3.org/2000/svg" xmlns:xlink="http://www.w3.org/1999/xlink" x="0px" y="0px"
	 viewBox="0 0 1200 370" style="enable-background:new 0 0 1200 370;" xml:space="preserve">
<style type="text/css">
	.st0{fill:#FFFFFF;}
	.st1{font-family:'FranklinGothic-Heavy';}
	.st2{font-size:163.5726px;}
	.st3{font-family:'FranklinGothic-Demi';}
	.st4{font-size:67.7164px;}
</style>
<g>
	<g>
		<path class="st0" d="M163.48,91.33l17.77,65.25c1.04,3.83-1.52,6.97-5.72,7l-46.29,0.36c-4.2,0.03-8.46-3.05-9.5-6.88L110,121.29
			c-0.74-2.7-3.58-4.45-6.33-3.87l-28.58,6.01c-3.98,0.84-6.44,4.85-5.37,8.77l35.41,130.03l-32.86-14.91
			c-5.41-2.45-9.58-7.04-10.93-12.02l-27.07-99.38c-1.4-5.13,0.31-9.9,4.48-12.5l24.42-15.23l36.97-23.07l23.19-14.47
			c1.96-1.22,4.76-1.24,7.38-0.06l23.68,10.76C158.89,83.38,162.35,87.19,163.48,91.33z"/>
		<path class="st0" d="M254.8,133.97l27.07,99.39c1.4,5.13-0.31,9.89-4.48,12.5l-24.41,15.23L216,284.16l-19.88,12.42
			c-3.99,2.49-9.74,2.54-15.07,0.12l-19.3-8.76c-4.49-2.04-7.95-5.85-9.08-9.98l-17.88-65.66c-1.04-3.83,1.52-6.97,5.72-7
			l46.29-0.36c4.2-0.03,8.46,3.05,9.5,6.88l9.87,36.22c0.74,2.7,3.58,4.45,6.33,3.87l28.6-6.01c3.98-0.84,6.44-4.85,5.37-8.77
			l-35.43-130.08l32.84,14.91C249.28,124.41,253.44,128.99,254.8,133.97z"/>
	</g>
	<text transform="matrix(1 0 0 1 335.1164 250.1253)" class="st0 st1 st2">HEXTECH</text>
	<text transform="matrix(1 0 0 1 1041.3113 251.7601)" class="st0 st3 st4">LTD.</text>
</g>
</svg>
